<?xml version="1.0" standalone="no"?>
<!DOCTYPE svg PUBLIC "-//W3C//DTD SVG 20010904//EN"
 "http://www.w3.org/TR/2001/REC-SVG-20010904/DTD/svg10.dtd">
<svg version="1.0" xmlns="http://www.w3.org/2000/svg"
 width="840.000000pt" height="1074.000000pt" viewBox="0 0 840.000000 1074.000000"
 preserveAspectRatio="xMidYMid meet">

<g transform="translate(0.000000,1074.000000) scale(0.100000,-0.100000)"
fill="#000000" stroke="none">
<path d="M3271 10320 c-314 -34 -546 -246 -659 -600 -52 -165 -73 -317 -79
-577 l-6 -231 44 -27 c24 -15 56 -35 71 -46 15 -10 29 -19 31 -19 3 0 7 17 11
39 10 66 57 192 107 291 50 98 105 190 94 155 -25 -76 -54 -188 -60 -228 l-7
-47 757 0 758 0 -7 55 c-3 31 -19 97 -36 148 -31 100 -25 97 42 -18 55 -92
120 -233 148 -320 12 -38 25 -73 27 -77 2 -4 36 16 75 45 l70 52 -5 230 c-6
252 -14 323 -57 492 -72 284 -226 496 -435 599 -49 24 -117 51 -150 60 -76 21
-280 29 -367 16 -38 -6 -82 -7 -104 -2 -66 14 -185 18 -263 10z"/>
<path d="M3028 8864 c-53 -28 -73 -105 -43 -164 35 -68 132 -78 189 -21 26 27
31 39 31 82 0 46 -4 54 -37 85 -42 38 -92 45 -140 18z m139 -40 c8 -22 -17
-45 -46 -42 -32 4 -42 45 -16 65 20 14 52 2 62 -23z"/>
<path d="M4054 8861 c-62 -38 -70 -129 -16 -183 97 -97 250 20 187 142 -30 57
-112 77 -171 41z m130 -17 c29 -29 12 -64 -31 -64 -31 0 -44 47 -18 67 24 17
30 16 49 -3z"/>
<path d="M2620 8631 c0 -45 -22 -342 -41 -541 -46 -503 -105 -857 -169 -1004
l-21 -49 73 7 c144 13 137 10 196 100 72 111 216 272 299 335 37 28 99 67 136
86 38 19 83 46 100 61 18 15 50 35 73 44 36 16 43 24 53 63 17 68 15 73 -31
87 -64 18 -193 86 -275 142 -83 57 -208 184 -246 249 -38 65 -75 183 -96 308
-10 60 -22 114 -25 120 -11 18 -26 13 -26 -8z"/>
<path d="M4551 8585 c-2 -52 -48 -238 -74 -303 -79 -193 -286 -372 -534 -462
-69 -25 -74 -35 -50 -93 11 -26 23 -34 58 -44 25 -6 65 -29 89 -50 25 -22 72
-54 105 -72 116 -65 191 -132 298 -266 30 -38 93 -110 139 -159 l84 -89 62 -5
c34 -2 62 -2 62 1 0 2 -11 29 -24 58 -68 156 -141 635 -181 1194 -16 221 -31
350 -34 290z"/>
<path d="M3955 6390 c-3 -11 -3 -24 0 -30 10 -16 111 -12 125 5 22 26 -5 45
-66 45 -44 0 -54 -3 -59 -20z"/>
<path d="M4324 6396 c-14 -36 3 -47 63 -44 54 3 58 5 58 28 0 23 -4 25 -58 28
-44 2 -59 0 -63 -12z"/>
<path d="M3800 6065 c0 -3 -9 -49 -21 -101 -11 -53 -17 -100 -12 -105 4 -4 59
-37 121 -74 l114 -65 79 71 c43 39 77 74 74 79 -5 9 -338 200 -348 200 -4 0
-7 -2 -7 -5z"/>
<path d="M2700 3549 c0 -25 58 -293 71 -326 l9 -23 824 0 825 0 11 38 c9 34
70 317 70 327 0 3 -407 5 -905 5 l-905 0 0 -21z"/>
<path d="M3193 1105 c-6 -11 -13 -58 -16 -105 -3 -47 -17 -132 -31 -190 -40
-160 -43 -219 -17 -273 40 -82 138 -130 266 -131 115 0 202 42 242 117 l15 29
16 -34 c23 -44 99 -94 170 -109 111 -23 262 23 320 99 40 52 40 119 2 287 -17
77 -34 175 -37 218 -3 42 -12 85 -19 95 -24 31 -18 -174 8 -280 28 -111 19
-136 -52 -155 -56 -14 -233 -16 -281 -3 -63 18 -63 21 -25 191 18 85 37 170
40 189 l6 35 -19 -23 c-11 -12 -22 -41 -26 -64 -4 -24 -23 -85 -42 -138 -19
-52 -41 -122 -48 -155 -11 -55 -13 -57 -19 -30 -7 32 -88 290 -115 365 -31 88
-24 2 14 -166 20 -90 35 -171 32 -179 -10 -25 -86 -37 -212 -33 -132 5 -180
20 -190 61 -4 13 3 57 14 99 23 90 35 219 23 268 -7 32 -9 33 -19 15z"/>
</g>
</svg>
